<svg width="63" height="27" viewBox="0 0 63 27" fill="none" xmlns="http://www.w3.org/2000/svg">
<path d="M9.72011 26.208C7.82411 26.208 6.14411 25.872 4.68011 25.2C3.21611 24.528 2.06411 23.568 1.22411 22.32C0.408112 21.048 0.000111669 19.548 0.000111669 17.82V17.172H4.60811V17.676C4.60811 19.02 5.07611 20.1 6.01211 20.916C6.94811 21.708 8.18411 22.104 9.72011 22.104C11.2801 22.104 12.4801 21.732 13.3201 20.988C14.1841 20.244 14.6161 19.308 14.6161 18.18V17.82C14.6161 17.052 14.4241 16.428 14.0401 15.948C13.6561 15.468 13.1401 15.12 12.4921 14.904C11.8441 14.664 11.1121 14.544 10.2961 14.544H5.25611V9.50398L13.3921 5.18398V4.60798H0.648112V0.503978H18.5041V6.62398L10.9081 10.656V11.232H12.2401C13.3681 11.232 14.4601 11.46 15.5161 11.916C16.5961 12.372 17.4841 13.08 18.1801 14.04C18.8761 14.976 19.2241 16.2 19.2241 17.712V18.144C19.2241 19.776 18.8281 21.204 18.0361 22.428C17.2441 23.628 16.1281 24.564 14.6881 25.236C13.2721 25.884 11.6161 26.208 9.72011 26.208ZM32.3425 26.208C29.3665 26.208 26.9785 25.392 25.1785 23.76C23.3785 22.104 22.4785 19.608 22.4785 16.272V9.93598C22.4785 6.69598 23.3785 4.23598 25.1785 2.55598C26.9785 0.851978 29.3665 -2.21729e-05 32.3425 -2.21729e-05C35.3425 -2.21729e-05 37.7305 0.851978 39.5065 2.55598C41.3065 4.23598 42.2065 6.69598 42.2065 9.93598V16.272C42.2065 19.608 41.3065 22.104 39.5065 23.76C37.7305 25.392 35.3425 26.208 32.3425 26.208ZM32.3425 22.104C34.1425 22.104 35.4625 21.612 36.3025 20.628C37.1665 19.644 37.5985 18.24 37.5985 16.416V9.71998C37.5985 7.87198 37.1185 6.47998 36.1585 5.54398C35.2225 4.58398 33.9505 4.10398 32.3425 4.10398C30.6865 4.10398 29.3905 4.59598 28.4545 5.57998C27.5425 6.56398 27.0865 7.94398 27.0865 9.71998V16.416C27.0865 18.312 27.5185 19.74 28.3825 20.7C29.2705 21.636 30.5905 22.104 32.3425 22.104ZM53.0582 20.628V15.156H47.6582V11.052H53.0582V5.57998H57.3062V11.052H62.7062V15.156H57.3062V20.628H53.0582Z" fill="url(#paint0_linear_4_72)"/>
<defs>
<linearGradient id="paint0_linear_4_72" x1="12.5413" y1="-51.796" x2="85.7792" y2="-29.4109" gradientUnits="userSpaceOnUse">
<stop stop-color="#6366F1"/>
<stop offset="1" stop-color="#EC4899"/>
</linearGradient>
</defs>
</svg>
