<svg width="39" height="26" viewBox="0 0 39 26" fill="none" xmlns="http://www.w3.org/2000/svg">
<path d="M9.53994 25.704C7.57195 25.704 5.86795 25.356 4.42795 24.66C3.01194 23.964 1.91994 22.98 1.15194 21.708C0.383945 20.436 -5.52535e-05 18.96 -5.52535e-05 17.28V16.92H4.67995V17.244C4.67995 18.444 5.07595 19.476 5.86794 20.34C6.68395 21.18 7.88395 21.6 9.46795 21.6C11.0519 21.6 12.2639 21.18 13.1039 20.34C13.9679 19.476 14.3999 18.36 14.3999 16.992V16.632C14.3999 15.288 13.9679 14.22 13.1039 13.428C12.2639 12.636 11.2079 12.24 9.93595 12.24C9.23995 12.24 8.66395 12.336 8.20794 12.528C7.75194 12.72 7.37995 12.96 7.09195 13.248C6.80394 13.536 6.56394 13.824 6.37194 14.112H0.791945V-5.05447e-05H17.9999V4.17595H5.39994V10.332H6.04795C6.28794 10.02 6.61194 9.71995 7.01995 9.43195C7.42794 9.14395 7.95594 8.90395 8.60395 8.71195C9.25195 8.51995 10.0199 8.42395 10.9079 8.42395C12.3959 8.42395 13.7519 8.73595 14.9759 9.35995C16.1999 9.98395 17.1719 10.908 17.8919 12.132C18.6359 13.332 19.0079 14.82 19.0079 16.596V17.028C19.0079 18.804 18.6239 20.34 17.8559 21.636C17.1119 22.932 16.0319 23.94 14.6159 24.66C13.1999 25.356 11.5079 25.704 9.53994 25.704ZM29.2539 20.124V14.652H23.8539V10.548H29.2539V5.07595H33.5019V10.548H38.9019V14.652H33.5019V20.124H29.2539Z" fill="url(#paint0_linear_4_66)"/>
<defs>
<linearGradient id="paint0_linear_4_66" x1="7.53006" y1="-52.3" x2="57.7618" y2="-42.2867" gradientUnits="userSpaceOnUse">
<stop stop-color="#6366F1"/>
<stop offset="1" stop-color="#EC4899"/>
</linearGradient>
</defs>
</svg>
