<svg width="63" height="27" viewBox="0 0 63 27" fill="none" xmlns="http://www.w3.org/2000/svg">
<path d="M9.53998 26.208C7.57198 26.208 5.86798 25.86 4.42798 25.164C3.01198 24.468 1.91998 23.484 1.15198 22.212C0.383981 20.94 -1.90139e-05 19.464 -1.90139e-05 17.784V17.424H4.67998V17.748C4.67998 18.948 5.07598 19.98 5.86798 20.844C6.68398 21.684 7.88398 22.104 9.46798 22.104C11.052 22.104 12.264 21.684 13.104 20.844C13.968 19.98 14.4 18.864 14.4 17.496V17.136C14.4 15.792 13.968 14.724 13.104 13.932C12.264 13.14 11.208 12.744 9.93598 12.744C9.23998 12.744 8.66398 12.84 8.20798 13.032C7.75198 13.224 7.37998 13.464 7.09198 13.752C6.80398 14.04 6.56398 14.328 6.37198 14.616H0.791981V0.503978H18V4.67998H5.39998V10.836H6.04798C6.28798 10.524 6.61198 10.224 7.01998 9.93598C7.42798 9.64798 7.95598 9.40798 8.60398 9.21598C9.25198 9.02398 10.02 8.92798 10.908 8.92798C12.396 8.92798 13.752 9.23998 14.976 9.86398C16.2 10.488 17.172 11.412 17.892 12.636C18.636 13.836 19.008 15.324 19.008 17.1V17.532C19.008 19.308 18.624 20.844 17.856 22.14C17.112 23.436 16.032 24.444 14.616 25.164C13.2 25.86 11.508 26.208 9.53998 26.208ZM31.8819 26.208C28.9059 26.208 26.5179 25.392 24.7179 23.76C22.9179 22.104 22.0179 19.608 22.0179 16.272V9.93598C22.0179 6.69598 22.9179 4.23598 24.7179 2.55598C26.5179 0.851978 28.9059 -2.21729e-05 31.8819 -2.21729e-05C34.8819 -2.21729e-05 37.2699 0.851978 39.0459 2.55598C40.8459 4.23598 41.7459 6.69598 41.7459 9.93598V16.272C41.7459 19.608 40.8459 22.104 39.0459 23.76C37.2699 25.392 34.8819 26.208 31.8819 26.208ZM31.8819 22.104C33.6819 22.104 35.0019 21.612 35.8419 20.628C36.7059 19.644 37.1379 18.24 37.1379 16.416V9.71998C37.1379 7.87198 36.6579 6.47998 35.6979 5.54398C34.7619 4.58398 33.4899 4.10398 31.8819 4.10398C30.2259 4.10398 28.9299 4.59598 27.9939 5.57998C27.0819 6.56398 26.6259 7.94398 26.6259 9.71998V16.416C26.6259 18.312 27.0579 19.74 27.9219 20.7C28.8099 21.636 30.1299 22.104 31.8819 22.104ZM52.5977 20.628V15.156H47.1977V11.052H52.5977V5.57998H56.8457V11.052H62.2457V15.156H56.8457V20.628H52.5977Z" fill="url(#paint0_linear_4_69)"/>
<defs>
<linearGradient id="paint0_linear_4_69" x1="12.3276" y1="-51.796" x2="85.2963" y2="-29.592" gradientUnits="userSpaceOnUse">
<stop stop-color="#6366F1"/>
<stop offset="1" stop-color="#EC4899"/>
</linearGradient>
</defs>
</svg>
