<svg width="233" height="33" viewBox="0 0 233 33" fill="none" xmlns="http://www.w3.org/2000/svg">
<path d="M-4.44129e-05 4.36306e-05H6.63703L13.647 17.1023H13.9453L20.9552 4.36306e-05H27.5923V25.4546H22.3721V8.88676H22.1608L15.5735 25.3303H12.0188L5.43142 8.82462H5.22013V25.4546H-4.44129e-05V4.36306e-05ZM40.5526 25.8275C38.622 25.8275 36.9523 25.4173 35.5437 24.597C34.1434 23.7684 33.0621 22.6166 32.2998 21.1417C31.5374 19.6585 31.1563 17.9392 31.1563 15.9837C31.1563 14.0116 31.5374 12.2882 32.2998 10.8133C33.0621 9.33006 34.1434 8.17831 35.5437 7.358C36.9523 6.5294 38.622 6.1151 40.5526 6.1151C42.4832 6.1151 44.1487 6.5294 45.5491 7.358C46.9577 8.17831 48.0431 9.33006 48.8054 10.8133C49.5678 12.2882 49.9489 14.0116 49.9489 15.9837C49.9489 17.9392 49.5678 19.6585 48.8054 21.1417C48.0431 22.6166 46.9577 23.7684 45.5491 24.597C44.1487 25.4173 42.4832 25.8275 40.5526 25.8275ZM40.5775 21.7259C41.4558 21.7259 42.1891 21.4773 42.7774 20.9802C43.3657 20.4747 43.809 19.787 44.1073 18.9169C44.4139 18.0469 44.5672 17.0567 44.5672 15.9464C44.5672 14.8361 44.4139 13.8459 44.1073 12.9759C43.809 12.1059 43.3657 11.4181 42.7774 10.9127C42.1891 10.4072 41.4558 10.1545 40.5775 10.1545C39.6909 10.1545 38.9451 10.4072 38.3402 10.9127C37.7437 11.4181 37.2921 12.1059 36.9855 12.9759C36.6872 13.8459 36.538 14.8361 36.538 15.9464C36.538 17.0567 36.6872 18.0469 36.9855 18.9169C37.2921 19.787 37.7437 20.4747 38.3402 20.9802C38.9451 21.4773 39.6909 21.7259 40.5775 21.7259ZM58.4503 18.4695L65.3236 6.36368H70.5437V25.4546H65.4976V13.3115L58.6492 25.4546H53.3917V6.36368H58.4503V18.4695ZM82.8888 25.4546V6.36368H99.5809V25.4546H94.5223V10.5274H87.8853V25.4546H82.8888ZM103.807 32.6137V6.36368H109.027V9.57036H109.263C109.495 9.05663 109.831 8.53461 110.27 8.00431C110.717 7.46572 111.297 7.01827 112.01 6.66198C112.731 6.29739 113.626 6.1151 114.695 6.1151C116.087 6.1151 117.371 6.47968 118.548 7.20885C119.724 7.92973 120.665 9.01934 121.369 10.4777C122.073 11.9277 122.425 13.7465 122.425 15.934C122.425 18.0635 122.082 19.8615 121.394 21.3282C120.714 22.7865 119.786 23.8927 118.61 24.6467C117.441 25.3924 116.132 25.7653 114.682 25.7653C113.655 25.7653 112.78 25.5955 112.06 25.2557C111.347 24.916 110.763 24.4893 110.307 23.9755C109.851 23.4535 109.503 22.9274 109.263 22.3971H109.102V32.6137H103.807ZM108.99 15.9091C108.99 17.0443 109.147 18.0345 109.462 18.8797C109.777 19.7248 110.233 20.3836 110.829 20.8559C111.426 21.3199 112.151 21.5519 113.004 21.5519C113.866 21.5519 114.595 21.3157 115.192 20.8434C115.788 20.3629 116.24 19.7 116.546 18.8548C116.861 18.0013 117.019 17.0195 117.019 15.9091C117.019 14.8071 116.865 13.8376 116.559 13.0008C116.252 12.1639 115.801 11.5093 115.204 11.037C114.608 10.5647 113.874 10.3285 113.004 10.3285C112.142 10.3285 111.413 10.5564 110.817 11.0121C110.228 11.4678 109.777 12.1142 109.462 12.951C109.147 13.7879 108.99 14.774 108.99 15.9091ZM134.581 25.8275C132.65 25.8275 130.981 25.4173 129.572 24.597C128.172 23.7684 127.09 22.6166 126.328 21.1417C125.566 19.6585 125.185 17.9392 125.185 15.9837C125.185 14.0116 125.566 12.2882 126.328 10.8133C127.09 9.33006 128.172 8.17831 129.572 7.358C130.981 6.5294 132.65 6.1151 134.581 6.1151C136.512 6.1151 138.177 6.5294 139.577 7.358C140.986 8.17831 142.071 9.33006 142.834 10.8133C143.596 12.2882 143.977 14.0116 143.977 15.9837C143.977 17.9392 143.596 19.6585 142.834 21.1417C142.071 22.6166 140.986 23.7684 139.577 24.597C138.177 25.4173 136.512 25.8275 134.581 25.8275ZM134.606 21.7259C135.484 21.7259 136.217 21.4773 136.806 20.9802C137.394 20.4747 137.837 19.787 138.136 18.9169C138.442 18.0469 138.595 17.0567 138.595 15.9464C138.595 14.8361 138.442 13.8459 138.136 12.9759C137.837 12.1059 137.394 11.4181 136.806 10.9127C136.217 10.4072 135.484 10.1545 134.606 10.1545C133.719 10.1545 132.973 10.4072 132.369 10.9127C131.772 11.4181 131.32 12.1059 131.014 12.9759C130.716 13.8459 130.566 14.8361 130.566 15.9464C130.566 17.0567 130.716 18.0469 131.014 18.9169C131.32 19.787 131.772 20.4747 132.369 20.9802C132.973 21.4773 133.719 21.7259 134.606 21.7259ZM156.12 25.8275C154.157 25.8275 152.466 25.4297 151.049 24.6343C149.641 23.8305 148.555 22.6954 147.793 21.2287C147.031 19.7538 146.649 18.0096 146.649 15.9961C146.649 14.0324 147.031 12.3089 147.793 10.8257C148.555 9.34249 149.628 8.1866 151.012 7.358C152.404 6.5294 154.036 6.1151 155.909 6.1151C157.169 6.1151 158.341 6.31811 159.426 6.72412C160.52 7.12185 161.473 7.72258 162.285 8.52632C163.105 9.33006 163.743 10.341 164.199 11.559C164.655 12.7687 164.883 14.1857 164.883 15.8097V17.2639H148.762V13.9826H159.899C159.899 13.2203 159.733 12.545 159.402 11.9567C159.07 11.3684 158.61 10.9085 158.022 10.5771C157.442 10.2374 156.767 10.0675 155.996 10.0675C155.192 10.0675 154.48 10.254 153.858 10.6268C153.245 10.9914 152.765 11.4844 152.417 12.1059C152.068 12.719 151.89 13.4026 151.882 14.1566V17.2763C151.882 18.2209 152.056 19.0371 152.404 19.7248C152.76 20.4126 153.262 20.9429 153.908 21.3157C154.554 21.6886 155.321 21.875 156.207 21.875C156.796 21.875 157.334 21.7922 157.823 21.6265C158.312 21.4607 158.73 21.2122 159.078 20.8807C159.426 20.5493 159.692 20.1433 159.874 19.6627L164.771 19.9858C164.522 21.1624 164.013 22.1899 163.242 23.0682C162.48 23.9383 161.494 24.6177 160.284 25.1066C159.083 25.5872 157.695 25.8275 156.12 25.8275ZM168.338 25.4546V6.36368H173.633V13.7714H175.124L180.32 6.36368H186.534L179.785 15.8346L186.609 25.4546H180.32L175.609 18.6808H173.633V25.4546H168.338ZM187.852 10.5274V6.36368H205.153V10.5274H199V25.4546H193.954V10.5274H187.852ZM211.681 12.2302H217.386C219.913 12.2302 221.885 12.835 223.302 14.0448C224.719 15.2463 225.427 16.8537 225.427 18.8672C225.427 20.1764 225.108 21.3282 224.47 22.3225C223.832 23.3085 222.913 24.0791 221.711 24.6343C220.51 25.1812 219.068 25.4546 217.386 25.4546H208.362V6.36368H213.421V21.2909H217.386C218.272 21.2909 219.002 21.0672 219.573 20.6197C220.145 20.1723 220.435 19.6005 220.443 18.9045C220.435 18.1671 220.145 17.5663 219.573 17.1023C219.002 16.63 218.272 16.3939 217.386 16.3939H211.681V12.2302ZM227.478 25.4546V6.36368H232.773V25.4546H227.478Z" fill="url(#paint0_linear_4_954)"/>
<defs>
<linearGradient id="paint0_linear_4_954" x1="45.2133" y1="-48.7215" x2="166.189" y2="91.9313" gradientUnits="userSpaceOnUse">
<stop stop-color="#6366F1"/>
<stop offset="1" stop-color="#EC4899"/>
</linearGradient>
</defs>
</svg>
