<svg width="48" height="48" viewBox="0 0 48 48" fill="none" xmlns="http://www.w3.org/2000/svg">
<rect width="48" height="48" rx="24" fill="#16161D"/>
<path d="M24 14C18.4783 14 14 18.4775 14 24C14 28.4183 16.865 32.1667 20.8392 33.4892C21.3383 33.5817 21.5 33.2717 21.5 33.0083V31.1467C18.7183 31.7517 18.1392 29.9667 18.1392 29.9667C17.6842 28.8108 17.0283 28.5033 17.0283 28.5033C16.1208 27.8825 17.0975 27.8958 17.0975 27.8958C18.1017 27.9658 18.63 28.9267 18.63 28.9267C19.5217 30.455 20.9692 30.0133 21.54 29.7575C21.6292 29.1117 21.8883 28.67 22.175 28.4208C19.9542 28.1667 17.6192 27.3092 17.6192 23.4783C17.6192 22.3858 18.01 21.4942 18.6492 20.7942C18.5458 20.5417 18.2033 19.5242 18.7467 18.1475C18.7467 18.1475 19.5867 17.8792 21.4975 19.1725C22.295 18.9508 23.15 18.84 24 18.8358C24.85 18.84 25.7058 18.9508 26.505 19.1725C28.4142 17.8792 29.2525 18.1475 29.2525 18.1475C29.7967 19.525 29.4542 20.5425 29.3508 20.7942C29.9925 21.4942 30.38 22.3867 30.38 23.4783C30.38 27.3192 28.0408 28.165 25.8142 28.4125C26.1725 28.7225 26.5 29.3308 26.5 30.2642V33.0083C26.5 33.2742 26.66 33.5867 27.1675 33.4883C31.1383 32.1642 34 28.4167 34 24C34 18.4775 29.5225 14 24 14Z" fill="#F0F0F5"/>
</svg>
