<svg width="331" height="27" viewBox="0 0 331 27" fill="none" xmlns="http://www.w3.org/2000/svg">
<path d="M22.9066 9.25952H17.4627C17.3632 8.55521 17.1602 7.92962 16.8537 7.38274C16.5471 6.82758 16.1535 6.35528 15.6729 5.96584C15.1923 5.5764 14.6372 5.2781 14.0074 5.07096C13.386 4.86381 12.7107 4.76023 11.9815 4.76023C10.664 4.76023 9.51642 5.08753 8.53867 5.74212C7.56092 6.38843 6.80276 7.33303 6.26417 8.57593C5.72558 9.81054 5.45628 11.3103 5.45628 13.0752C5.45628 14.8898 5.72558 16.4145 6.26417 17.6491C6.81104 18.8837 7.57335 19.8159 8.5511 20.4456C9.52884 21.0753 10.6599 21.3902 11.9442 21.3902C12.6651 21.3902 13.3321 21.2949 13.9453 21.1043C14.5667 20.9138 15.1177 20.6362 15.5983 20.2716C16.0789 19.8987 16.4766 19.4471 16.7915 18.9168C17.1147 18.3865 17.3384 17.7817 17.4627 17.1022L22.9066 17.1271C22.7657 18.2954 22.4136 19.4223 21.8501 20.5077C21.2949 21.5849 20.5451 22.5502 19.6005 23.4037C18.6641 24.2489 17.5455 24.92 16.2446 25.4172C14.952 25.9061 13.4895 26.1505 11.8572 26.1505C9.58685 26.1505 7.55678 25.6368 5.76701 24.6093C3.98552 23.5818 2.5769 22.0945 1.54115 20.1473C0.513692 18.2001 -3.88287e-05 15.8427 -3.88287e-05 13.0752C-3.88287e-05 10.2994 0.521978 7.93791 1.56601 5.9907C2.61005 4.04349 4.02695 2.5603 5.81672 1.54113C7.6065 0.513664 9.61999 -6.75321e-05 11.8572 -6.75321e-05C13.3321 -6.75321e-05 14.6993 0.207082 15.9588 0.621382C17.2265 1.03568 18.3493 1.64056 19.327 2.43601C20.3048 3.22318 21.1002 4.1885 21.7134 5.33196C22.3348 6.47543 22.7326 7.78462 22.9066 9.25952ZM26.6663 25.8025V6.71158H34.8073C37.1605 6.71158 39.0207 7.15902 40.3879 8.05391C41.7551 8.9488 42.4387 10.2207 42.4387 11.8696C42.4387 12.9054 42.0534 13.7671 41.2828 14.4548C40.5122 15.1426 39.4433 15.6066 38.0761 15.8469C39.2196 15.9297 40.1932 16.1907 40.9969 16.6299C41.809 17.0608 42.4263 17.6201 42.8489 18.3078C43.2797 18.9956 43.4952 19.7579 43.4952 20.5947C43.4952 21.6802 43.2052 22.6124 42.6251 23.3913C42.0534 24.1702 41.2124 24.7667 40.1021 25.181C39 25.5953 37.6535 25.8025 36.0626 25.8025H26.6663ZM31.6006 21.8376H36.0626C36.8001 21.8376 37.376 21.6636 37.7903 21.3156C38.2129 20.9593 38.4241 20.4746 38.4241 19.8614C38.4241 19.182 38.2129 18.6475 37.7903 18.2581C37.376 17.8687 36.8001 17.6739 36.0626 17.6739H31.6006V21.8376ZM31.6006 14.5667H34.9192C35.4495 14.5667 35.9011 14.4921 36.2739 14.343C36.6551 14.1855 36.9451 13.9618 37.144 13.6718C37.3511 13.3818 37.4547 13.0379 37.4547 12.6402C37.4547 12.0519 37.2185 11.592 36.7462 11.2606C36.2739 10.9291 35.6276 10.7634 34.8073 10.7634H31.6006V14.5667ZM58.0184 25.8025V10.8629H54.4389C53.4694 10.8629 52.732 11.0866 52.2265 11.534C51.7211 11.9815 51.4725 12.5118 51.4808 13.1249C51.4725 13.7464 51.7128 14.2725 52.2017 14.7034C52.6988 15.126 53.428 15.3373 54.3892 15.3373H59.7833V18.9168H54.3892C52.7568 18.9168 51.3441 18.6683 50.1509 18.1711C48.9577 17.6739 48.038 16.9821 47.3917 16.0955C46.7453 15.2006 46.4263 14.1607 46.4346 12.9758C46.4263 11.7329 46.7453 10.6433 47.3917 9.70696C48.038 8.76236 48.9618 8.02905 50.1633 7.50703C51.3731 6.97673 52.7983 6.71158 54.4389 6.71158H62.9527V25.8025H58.0184ZM45.8877 25.8025L51.1949 15.8593H56.2535L50.9588 25.8025H45.8877ZM66.0848 20.3959H71.218C71.2429 21.0256 71.5246 21.5228 72.0632 21.8874C72.6018 22.2519 73.2978 22.4342 74.1512 22.4342C75.013 22.4342 75.738 22.2354 76.3263 21.8376C76.9146 21.4316 77.2088 20.8516 77.2088 20.0976C77.2088 19.6336 77.0928 19.2317 76.8608 18.892C76.6287 18.544 76.3056 18.2705 75.8913 18.0717C75.477 17.8728 74.9964 17.7734 74.4495 17.7734H71.7027V14.3057H74.4495C75.2698 14.3057 75.8996 14.1151 76.3387 13.734C76.7862 13.3528 77.0099 12.8764 77.0099 12.3046C77.0099 11.6583 76.7779 11.1404 76.3139 10.751C75.8582 10.3533 75.2408 10.1544 74.462 10.1544C73.6748 10.1544 73.0202 10.3326 72.4982 10.6889C71.9845 11.0369 71.7193 11.4926 71.7027 12.056H66.5944C66.611 10.9126 66.9549 9.9224 67.626 9.08552C68.3055 8.24863 69.2169 7.60232 70.3604 7.1466C71.5122 6.69087 72.8006 6.463 74.2258 6.463C75.7836 6.463 77.1259 6.68258 78.2528 7.12174C79.388 7.55261 80.258 8.16991 80.8629 8.97365C81.4761 9.7774 81.7826 10.7344 81.7826 11.8447C81.7826 12.8556 81.4512 13.7008 80.7883 14.3803C80.1254 15.0597 79.1974 15.5444 78.0042 15.8344V16.0333C78.7914 16.083 79.504 16.2943 80.142 16.6672C80.78 17.0401 81.2896 17.5538 81.6708 18.2084C82.0519 18.8547 82.2425 19.6211 82.2425 20.5077C82.2425 21.6926 81.8945 22.7077 81.1985 23.5528C80.5107 24.398 79.5578 25.0485 78.3398 25.5042C77.1301 25.9516 75.7421 26.1754 74.1761 26.1754C72.6515 26.1754 71.2843 25.9558 70.0745 25.5166C68.8731 25.0692 67.916 24.4146 67.2034 23.5528C66.4991 22.6911 66.1263 21.6388 66.0848 20.3959ZM90.9335 26.1629C89.7154 26.1629 88.63 25.9516 87.6771 25.5291C86.7242 25.0982 85.9702 24.4643 85.415 23.6274C84.8681 22.7822 84.5947 21.7299 84.5947 20.4705C84.5947 19.4099 84.7894 18.5191 85.1788 17.7982C85.5683 17.0773 86.0986 16.4973 86.7698 16.0582C87.4409 15.619 88.2032 15.2876 89.0567 15.0639C89.9184 14.8401 90.8216 14.6827 91.7662 14.5916C92.8765 14.4755 93.7714 14.3678 94.4509 14.2684C95.1303 14.1607 95.6233 14.0032 95.9299 13.7961C96.2365 13.5889 96.3898 13.2824 96.3898 12.8764V12.8018C96.3898 12.0146 96.1412 11.4056 95.644 10.9747C95.1552 10.5438 94.4592 10.3284 93.556 10.3284C92.6031 10.3284 91.8449 10.5397 91.2815 10.9623C90.718 11.3766 90.3452 11.8986 90.1629 12.5283L85.2659 12.1306C85.5144 10.9706 86.0033 9.96797 86.7325 9.1228C87.4616 8.26935 88.4021 7.61475 89.5538 7.15902C90.7139 6.69501 92.0562 6.463 93.5808 6.463C94.6414 6.463 95.6565 6.58729 96.6259 6.83587C97.6037 7.08445 98.4696 7.46975 99.2236 7.99176C99.9859 8.51378 100.587 9.18495 101.026 10.0053C101.465 10.8173 101.685 11.7909 101.685 12.9261V25.8025H96.6632V23.1551H96.5141C96.2075 23.7517 95.7973 24.2779 95.2836 24.7336C94.7699 25.181 94.1526 25.5332 93.4317 25.7901C92.7108 26.0386 91.8781 26.1629 90.9335 26.1629ZM92.4498 22.5088C93.2287 22.5088 93.9164 22.3555 94.513 22.0489C95.1096 21.7341 95.5778 21.3115 95.9175 20.7812C96.2572 20.2509 96.4271 19.6501 96.4271 18.979V16.9531C96.2614 17.0608 96.0335 17.1602 95.7435 17.2514C95.4618 17.3342 95.1427 17.4129 94.7864 17.4875C94.4302 17.5538 94.0739 17.6159 93.7176 17.6739C93.3613 17.7237 93.0381 17.7692 92.7481 17.8107C92.1266 17.9018 91.5839 18.0468 91.1199 18.2457C90.6559 18.4445 90.2954 18.7138 90.0386 19.0536C89.7817 19.385 89.6533 19.7993 89.6533 20.2965C89.6533 21.0173 89.9143 21.5684 90.4363 21.9495C90.9666 22.3224 91.6378 22.5088 92.4498 22.5088ZM103.875 10.8753V6.71158H121.176V10.8753H115.024V25.8025H109.978V10.8753H103.875ZM127.705 12.5781H133.409C135.937 12.5781 137.909 13.1829 139.326 14.3927C140.743 15.5942 141.451 17.2016 141.451 19.2151C141.451 20.5243 141.132 21.6761 140.494 22.6704C139.856 23.6564 138.936 24.427 137.735 24.9822C136.533 25.5291 135.092 25.8025 133.409 25.8025H124.386V6.71158H129.445V21.6388H133.409C134.296 21.6388 135.025 21.4151 135.597 20.9676C136.169 20.5202 136.459 19.9484 136.467 19.2524C136.459 18.515 136.169 17.9142 135.597 17.4502C135.025 16.9779 134.296 16.7418 133.409 16.7418H127.705V12.5781ZM153.588 26.1754C151.632 26.1754 149.95 25.7611 148.542 24.9325C147.141 24.0956 146.064 22.9355 145.31 21.4523C144.565 19.9692 144.192 18.2622 144.192 16.3316C144.192 14.3761 144.569 12.6609 145.323 11.186C146.085 9.70282 147.166 8.54693 148.567 7.71833C149.967 6.88144 151.632 6.463 153.563 6.463C155.229 6.463 156.687 6.76544 157.938 7.37032C159.189 7.97519 160.179 8.82451 160.909 9.91826C161.638 11.012 162.04 12.2963 162.114 13.7712H157.118C156.977 12.8184 156.604 12.0519 155.999 11.4719C155.403 10.8836 154.62 10.5894 153.65 10.5894C152.83 10.5894 152.113 10.8131 151.5 11.2606C150.895 11.6997 150.423 12.3419 150.083 13.1871C149.743 14.0322 149.573 15.0556 149.573 16.257C149.573 17.4751 149.739 18.5108 150.071 19.3643C150.41 20.2177 150.887 20.8682 151.5 21.3156C152.113 21.7631 152.83 21.9868 153.65 21.9868C154.255 21.9868 154.798 21.8625 155.278 21.6139C155.767 21.3653 156.169 21.0049 156.484 20.5326C156.807 20.052 157.018 19.4761 157.118 18.805H162.114C162.031 20.2633 161.634 21.5476 160.921 22.658C160.217 23.76 159.243 24.6217 158 25.2432C156.757 25.8646 155.287 26.1754 153.588 26.1754ZM176.69 25.8025V10.8629H173.111C172.141 10.8629 171.404 11.0866 170.898 11.534C170.393 11.9815 170.144 12.5118 170.153 13.1249C170.144 13.7464 170.385 14.2725 170.874 14.7034C171.371 15.126 172.1 15.3373 173.061 15.3373H178.455V18.9168H173.061C171.429 18.9168 170.016 18.6683 168.823 18.1711C167.63 17.6739 166.71 16.9821 166.064 16.0955C165.417 15.2006 165.098 14.1607 165.106 12.9758C165.098 11.7329 165.417 10.6433 166.064 9.70696C166.71 8.76236 167.634 8.02905 168.835 7.50703C170.045 6.97673 171.47 6.71158 173.111 6.71158H181.625V25.8025H176.69ZM164.56 25.8025L169.867 15.8593H174.925L169.631 25.8025H164.56ZM202.465 26.1754C200.509 26.1754 198.827 25.7611 197.419 24.9325C196.018 24.0956 194.941 22.9355 194.187 21.4523C193.441 19.9692 193.069 18.2622 193.069 16.3316C193.069 14.3761 193.446 12.6609 194.2 11.186C194.962 9.70282 196.043 8.54693 197.444 7.71833C198.844 6.88144 200.509 6.463 202.44 6.463C204.106 6.463 205.564 6.76544 206.815 7.37032C208.066 7.97519 209.056 8.82451 209.786 9.91826C210.515 11.012 210.917 12.2963 210.991 13.7712H205.995C205.854 12.8184 205.481 12.0519 204.876 11.4719C204.28 10.8836 203.496 10.5894 202.527 10.5894C201.707 10.5894 200.99 10.8131 200.377 11.2606C199.772 11.6997 199.3 12.3419 198.96 13.1871C198.62 14.0322 198.45 15.0556 198.45 16.257C198.45 17.4751 198.616 18.5108 198.947 19.3643C199.287 20.2177 199.764 20.8682 200.377 21.3156C200.99 21.7631 201.707 21.9868 202.527 21.9868C203.132 21.9868 203.675 21.8625 204.155 21.6139C204.644 21.3653 205.046 21.0049 205.361 20.5326C205.684 20.052 205.895 19.4761 205.995 18.805H210.991C210.908 20.2633 210.511 21.5476 209.798 22.658C209.094 23.76 208.12 24.6217 206.877 25.2432C205.634 25.8646 204.164 26.1754 202.465 26.1754ZM223.007 26.1754C221.076 26.1754 219.407 25.7652 217.998 24.9449C216.598 24.1163 215.516 22.9645 214.754 21.4896C213.992 20.0064 213.611 18.2871 213.611 16.3316C213.611 14.3595 213.992 12.6361 214.754 11.1612C215.516 9.67796 216.598 8.52621 217.998 7.7059C219.407 6.8773 221.076 6.463 223.007 6.463C224.938 6.463 226.603 6.8773 228.003 7.7059C229.412 8.52621 230.497 9.67796 231.26 11.1612C232.022 12.6361 232.403 14.3595 232.403 16.3316C232.403 18.2871 232.022 20.0064 231.26 21.4896C230.497 22.9645 229.412 24.1163 228.003 24.9449C226.603 25.7652 224.938 26.1754 223.007 26.1754ZM223.032 22.0738C223.91 22.0738 224.643 21.8252 225.232 21.3281C225.82 20.8226 226.263 20.1349 226.562 19.2648C226.868 18.3948 227.021 17.4046 227.021 16.2943C227.021 15.184 226.868 14.1938 226.562 13.3238C226.263 12.4538 225.82 11.766 225.232 11.2606C224.643 10.7551 223.91 10.5024 223.032 10.5024C222.145 10.5024 221.399 10.7551 220.795 11.2606C220.198 11.766 219.746 12.4538 219.44 13.3238C219.141 14.1938 218.992 15.184 218.992 16.2943C218.992 17.4046 219.141 18.3948 219.44 19.2648C219.746 20.1349 220.198 20.8226 220.795 21.3281C221.399 21.8252 222.145 22.0738 223.032 22.0738ZM255.232 19.9484L260.403 6.71158H264.43L256.985 25.8025H253.467L246.196 6.71158H250.211L255.232 19.9484ZM249.005 6.71158V25.8025H243.947V6.71158H249.005ZM261.72 25.8025V6.71158H266.716V25.8025H261.72ZM284.098 14.1441V18.3078H274.13V14.1441H284.098ZM275.87 6.71158V25.8025H270.812V6.71158H275.87ZM287.417 6.71158V25.8025H282.396V6.71158H287.417ZM300.15 26.1754C298.22 26.1754 296.55 25.7652 295.142 24.9449C293.741 24.1163 292.66 22.9645 291.898 21.4896C291.135 20.0064 290.754 18.2871 290.754 16.3316C290.754 14.3595 291.135 12.6361 291.898 11.1612C292.66 9.67796 293.741 8.52621 295.142 7.7059C296.55 6.8773 298.22 6.463 300.15 6.463C302.081 6.463 303.747 6.8773 305.147 7.7059C306.556 8.52621 307.641 9.67796 308.403 11.1612C309.166 12.6361 309.547 14.3595 309.547 16.3316C309.547 18.2871 309.166 20.0064 308.403 21.4896C307.641 22.9645 306.556 24.1163 305.147 24.9449C303.747 25.7652 302.081 26.1754 300.15 26.1754ZM300.175 22.0738C301.054 22.0738 301.787 21.8252 302.375 21.3281C302.964 20.8226 303.407 20.1349 303.705 19.2648C304.012 18.3948 304.165 17.4046 304.165 16.2943C304.165 15.184 304.012 14.1938 303.705 13.3238C303.407 12.4538 302.964 11.766 302.375 11.2606C301.787 10.7551 301.054 10.5024 300.175 10.5024C299.289 10.5024 298.543 10.7551 297.938 11.2606C297.341 11.766 296.89 12.4538 296.583 13.3238C296.285 14.1938 296.136 15.184 296.136 16.2943C296.136 17.4046 296.285 18.3948 296.583 19.2648C296.89 20.1349 297.341 20.8226 297.938 21.3281C298.543 21.8252 299.289 22.0738 300.175 22.0738ZM318.048 18.8174L324.921 6.71158H330.142V25.8025H325.095V13.6594L318.247 25.8025H312.99V6.71158H318.048V18.8174ZM324.014 0.0496478H327.705C327.697 1.5577 327.138 2.77159 326.028 3.69134C324.926 4.61108 323.434 5.07096 321.553 5.07096C319.664 5.07096 318.168 4.61108 317.066 3.69134C315.964 2.77159 315.413 1.5577 315.413 0.0496478H319.08C319.071 0.621382 319.254 1.13511 319.627 1.59084C320.008 2.04657 320.65 2.27444 321.553 2.27444C322.431 2.27444 323.061 2.05071 323.442 1.60327C323.823 1.15583 324.014 0.637953 324.014 0.0496478Z" fill="url(#paint0_linear_1_128)"/>
<defs>
<linearGradient id="paint0_linear_1_128" x1="68.7748" y1="-83.62" x2="261.62" y2="109.339" gradientUnits="userSpaceOnUse">
<stop stop-color="#6366F1"/>
<stop offset="1" stop-color="#EC4899"/>
</linearGradient>
</defs>
</svg>
