<svg width="48" height="48" viewBox="0 0 48 48" fill="none" xmlns="http://www.w3.org/2000/svg">
<rect width="48" height="48" rx="24" fill="#16161D"/>
<path d="M29.8333 14H18.1667C15.8658 14 14 15.8658 14 18.1667V29.8333C14 32.1342 15.8658 34 18.1667 34H29.8333C32.135 34 34 32.1342 34 29.8333V18.1667C34 15.8658 32.135 14 29.8333 14ZM20.6667 29.8333H18.1667V20.6667H20.6667V29.8333ZM19.4167 19.61C18.6117 19.61 17.9583 18.9517 17.9583 18.14C17.9583 17.3283 18.6117 16.67 19.4167 16.67C20.2217 16.67 20.875 17.3283 20.875 18.14C20.875 18.9517 20.2225 19.61 19.4167 19.61ZM30.6667 29.8333H28.1667V25.1633C28.1667 22.3567 24.8333 22.5692 24.8333 25.1633V29.8333H22.3333V20.6667H24.8333V22.1375C25.9967 19.9825 30.6667 19.8233 30.6667 24.2008V29.8333Z" fill="#F0F0F5"/>
</svg>
