<svg width="48" height="48" viewBox="0 0 48 48" fill="none" xmlns="http://www.w3.org/2000/svg">
<rect width="48" height="48" rx="24" fill="#16161D"/>
<path d="M33.9608 17.8083C33.2121 18.138 32.4188 18.3556 31.6067 18.4542C32.4618 17.9402 33.102 17.1342 33.4092 16.185C32.6167 16.6475 31.7383 16.9842 30.8033 17.1717C30.1865 16.512 29.3691 16.0745 28.478 15.9271C27.587 15.7796 26.6722 15.9305 25.8758 16.3563C25.0793 16.7821 24.4457 17.4589 24.0734 18.2818C23.701 19.1046 23.6108 20.0273 23.8167 20.9067C20.4083 20.7458 17.3892 19.1083 15.3667 16.635C14.999 17.2598 14.8072 17.9725 14.8117 18.6975C14.8117 20.1225 15.5367 21.375 16.635 22.1108C15.984 22.0901 15.3475 21.9141 14.7783 21.5975V21.6475C14.778 22.5945 15.1052 23.5124 15.7046 24.2456C16.304 24.9788 17.1385 25.4821 18.0667 25.67C17.4652 25.8311 16.8353 25.8553 16.2233 25.7408C16.4868 26.5558 16.9981 27.2683 17.6858 27.7787C18.3736 28.2892 19.2036 28.5722 20.06 28.5883C18.6096 29.7266 16.8187 30.3444 14.975 30.3425C14.65 30.3425 14.3258 30.3233 14 30.2867C15.8798 31.4903 18.0654 32.1292 20.2975 32.1275C27.8417 32.1275 31.9625 25.8808 31.9625 20.4733C31.9625 20.2983 31.9625 20.1233 31.95 19.9483C32.755 19.369 33.4494 18.6498 34 17.825L33.9608 17.8083Z" fill="#F0F0F5"/>
</svg>
