<svg width="83" height="16" viewBox="0 0 83 16" fill="none" xmlns="http://www.w3.org/2000/svg">
<path d="M4.43757e-05 15.3764V0.830964H5.73868C6.8419 0.830964 7.78177 1.04166 8.55828 1.46307C9.3348 1.87973 9.92665 2.45975 10.3339 3.20312C10.7458 3.94176 10.9517 4.79403 10.9517 5.75994C10.9517 6.72585 10.7434 7.57812 10.3267 8.31676C9.91008 9.0554 9.30639 9.63068 8.51567 10.0426C7.72968 10.4545 6.77798 10.6605 5.66056 10.6605H2.00289V8.19602H5.1634C5.75525 8.19602 6.24294 8.09422 6.62646 7.89062C7.01472 7.68229 7.30355 7.39583 7.49294 7.03125C7.68707 6.66193 7.78414 6.23816 7.78414 5.75994C7.78414 5.27699 7.68707 4.85558 7.49294 4.49574C7.30355 4.13115 7.01472 3.84943 6.62646 3.65057C6.23821 3.44697 5.74578 3.34517 5.14919 3.34517H3.07533V15.3764H4.43757e-05ZM17.6456 15.5895C16.5424 15.5895 15.5883 15.3551 14.7834 14.8864C13.9832 14.4129 13.3653 13.7547 12.9297 12.9119C12.4941 12.0644 12.2763 11.0819 12.2763 9.96449C12.2763 8.83759 12.4941 7.85274 12.9297 7.00994C13.3653 6.1624 13.9832 5.50426 14.7834 5.03551C15.5883 4.56202 16.5424 4.32528 17.6456 4.32528C18.7489 4.32528 19.7006 4.56202 20.5008 5.03551C21.3057 5.50426 21.9259 6.1624 22.3615 7.00994C22.7972 7.85274 23.015 8.83759 23.015 9.96449C23.015 11.0819 22.7972 12.0644 22.3615 12.9119C21.9259 13.7547 21.3057 14.4129 20.5008 14.8864C19.7006 15.3551 18.7489 15.5895 17.6456 15.5895ZM17.6598 13.2457C18.1617 13.2457 18.5808 13.1037 18.9169 12.8196C19.2531 12.5308 19.5064 12.1378 19.6769 11.6406C19.8521 11.1435 19.9397 10.5776 19.9397 9.94318C19.9397 9.30871 19.8521 8.7429 19.6769 8.24574C19.5064 7.74858 19.2531 7.35559 18.9169 7.06676C18.5808 6.77793 18.1617 6.63352 17.6598 6.63352C17.1532 6.63352 16.7271 6.77793 16.3814 7.06676C16.0405 7.35559 15.7825 7.74858 15.6073 8.24574C15.4368 8.7429 15.3516 9.30871 15.3516 9.94318C15.3516 10.5776 15.4368 11.1435 15.6073 11.6406C15.7825 12.1378 16.0405 12.5308 16.3814 12.8196C16.7271 13.1037 17.1532 13.2457 17.6598 13.2457ZM24.9823 15.3764V4.46733H27.9155V6.37074H28.0292C28.228 5.69365 28.5618 5.18229 29.0306 4.83665C29.4993 4.48627 30.0391 4.31108 30.6499 4.31108C30.8014 4.31108 30.9648 4.32055 31.14 4.33949C31.3151 4.35843 31.469 4.38447 31.6016 4.41761V7.10227C31.4596 7.05966 31.2631 7.02178 31.0121 6.98863C30.7612 6.95549 30.5315 6.93892 30.3232 6.93892C29.8781 6.93892 29.4804 7.03598 29.13 7.23011C28.7844 7.41951 28.5098 7.68466 28.3062 8.02557C28.1073 8.36648 28.0079 8.75947 28.0079 9.20454V15.3764H24.9823ZM39.5153 4.46733V6.74006H32.9457V4.46733H39.5153ZM34.4372 1.85369H37.4628V12.0241C37.4628 12.3035 37.5054 12.5213 37.5906 12.6776C37.6758 12.8291 37.7942 12.9356 37.9457 12.9972C38.102 13.0587 38.2819 13.0895 38.4855 13.0895C38.6275 13.0895 38.7696 13.0777 38.9116 13.054C39.0537 13.0256 39.1626 13.0043 39.2383 12.9901L39.7142 15.2415C39.5627 15.2888 39.3496 15.3433 39.075 15.4048C38.8004 15.4711 38.4665 15.5114 38.0736 15.5256C37.3444 15.554 36.7052 15.4569 36.1559 15.2344C35.6114 15.0118 35.1877 14.6662 34.8846 14.1974C34.5816 13.7287 34.4325 13.1368 34.4372 12.4219V1.85369ZM47.3527 4.46733V6.74006H40.6197V4.46733H47.3527ZM42.1609 15.3764V3.67898C42.1609 2.88826 42.3148 2.23248 42.6226 1.71165C42.9351 1.19081 43.3612 0.800187 43.901 0.53977C44.4407 0.279354 45.0539 0.149145 45.7405 0.149145C46.2045 0.149145 46.6282 0.184657 47.0118 0.25568C47.4 0.326703 47.6888 0.390623 47.8782 0.447442L47.3385 2.72017C47.2201 2.68229 47.0733 2.64678 46.8981 2.61363C46.7277 2.58049 46.5525 2.56392 46.3726 2.56392C45.9275 2.56392 45.6174 2.66809 45.4422 2.87642C45.267 3.08002 45.1794 3.36648 45.1794 3.73579V15.3764H42.1609ZM53.7394 15.5895C52.6362 15.5895 51.6821 15.3551 50.8772 14.8864C50.077 14.4129 49.4591 13.7547 49.0235 12.9119C48.5879 12.0644 48.3701 11.0819 48.3701 9.96449C48.3701 8.83759 48.5879 7.85274 49.0235 7.00994C49.4591 6.1624 50.077 5.50426 50.8772 5.03551C51.6821 4.56202 52.6362 4.32528 53.7394 4.32528C54.8426 4.32528 55.7943 4.56202 56.5945 5.03551C57.3994 5.50426 58.0197 6.1624 58.4553 7.00994C58.8909 7.85274 59.1087 8.83759 59.1087 9.96449C59.1087 11.0819 58.8909 12.0644 58.4553 12.9119C58.0197 13.7547 57.3994 14.4129 56.5945 14.8864C55.7943 15.3551 54.8426 15.5895 53.7394 15.5895ZM53.7536 13.2457C54.2555 13.2457 54.6745 13.1037 55.0107 12.8196C55.3469 12.5308 55.6002 12.1378 55.7706 11.6406C55.9458 11.1435 56.0334 10.5776 56.0334 9.94318C56.0334 9.30871 55.9458 8.7429 55.7706 8.24574C55.6002 7.74858 55.3469 7.35559 55.0107 7.06676C54.6745 6.77793 54.2555 6.63352 53.7536 6.63352C53.247 6.63352 52.8208 6.77793 52.4752 7.06676C52.1343 7.35559 51.8762 7.74858 51.701 8.24574C51.5306 8.7429 51.4454 9.30871 51.4454 9.94318C51.4454 10.5776 51.5306 11.1435 51.701 11.6406C51.8762 12.1378 52.1343 12.5308 52.4752 12.8196C52.8208 13.1037 53.247 13.2457 53.7536 13.2457ZM64.1016 0.830964V15.3764H61.076V0.830964H64.1016ZM66.5253 15.3764V4.46733H69.5508V15.3764H66.5253ZM68.0451 3.06108C67.5953 3.06108 67.2094 2.91193 66.8875 2.61363C66.5702 2.3106 66.4116 1.94839 66.4116 1.52699C66.4116 1.11032 66.5702 0.752839 66.8875 0.454544C67.2094 0.151513 67.5953 -2.14577e-06 68.0451 -2.14577e-06C68.495 -2.14577e-06 68.8785 0.151513 69.1957 0.454544C69.5177 0.752839 69.6787 1.11032 69.6787 1.52699C69.6787 1.94839 69.5177 2.3106 69.1957 2.61363C68.8785 2.91193 68.495 3.06108 68.0451 3.06108ZM76.9035 15.5895C75.8002 15.5895 74.8462 15.3551 74.0412 14.8864C73.241 14.4129 72.6232 13.7547 72.1875 12.9119C71.7519 12.0644 71.5341 11.0819 71.5341 9.96449C71.5341 8.83759 71.7519 7.85274 72.1875 7.00994C72.6232 6.1624 73.241 5.50426 74.0412 5.03551C74.8462 4.56202 75.8002 4.32528 76.9035 4.32528C78.0067 4.32528 78.9584 4.56202 79.7586 5.03551C80.5635 5.50426 81.1838 6.1624 81.6194 7.00994C82.055 7.85274 82.2728 8.83759 82.2728 9.96449C82.2728 11.0819 82.055 12.0644 81.6194 12.9119C81.1838 13.7547 80.5635 14.4129 79.7586 14.8864C78.9584 15.3551 78.0067 15.5895 76.9035 15.5895ZM76.9177 13.2457C77.4196 13.2457 77.8386 13.1037 78.1748 12.8196C78.5109 12.5308 78.7642 12.1378 78.9347 11.6406C79.1099 11.1435 79.1975 10.5776 79.1975 9.94318C79.1975 9.30871 79.1099 8.7429 78.9347 8.24574C78.7642 7.74858 78.5109 7.35559 78.1748 7.06676C77.8386 6.77793 77.4196 6.63352 76.9177 6.63352C76.411 6.63352 75.9849 6.77793 75.6392 7.06676C75.2983 7.35559 75.0403 7.74858 74.8651 8.24574C74.6946 8.7429 74.6094 9.30871 74.6094 9.94318C74.6094 10.5776 74.6946 11.1435 74.8651 11.6406C75.0403 12.1378 75.2983 12.5308 75.6392 12.8196C75.9849 13.1037 76.411 13.2457 76.9177 13.2457Z" fill="url(#paint0_linear_3_19)"/>
<defs>
<linearGradient id="paint0_linear_3_19" x1="12.8334" y1="-19.6661" x2="68.918" y2="36.6383" gradientUnits="userSpaceOnUse">
<stop stop-color="#6366F1"/>
<stop offset="1" stop-color="#EC4899"/>
</linearGradient>
</defs>
</svg>
